<svg xmlns="http://www.w3.org/2000/svg" xmlns:xlink="http://www.w3.org/1999/xlink" width="52" height="52" viewBox="0 0 52 52">
  <defs>
    <clipPath id="clip-path">
      <circle id="Ellipse_8" data-name="Ellipse 8" cx="24" cy="24" r="24" fill="#c7cfe0"/>
    </clipPath>
  </defs>
  <g id="avatar" transform="translate(2 2)">
    <g id="Ellipse_7" data-name="Ellipse 7" fill="#c7cfe0" stroke="#c7cfe0" stroke-width="2">
      <circle cx="24" cy="24" r="24" stroke="none"/>
      <circle cx="24" cy="24" r="25" fill="none"/>
    </g>
    <g id="Mask_Group_3" data-name="Mask Group 3" transform="translate(0)" clip-path="url(#clip-path)">
      <g id="Group_210" data-name="Group 210" transform="translate(4.493 6.071)">
        <path id="Path_143" data-name="Path 143" d="M678.039,334.12c2.223-.013,10.977.01,19.454.051s15.453.044,15.5,0-.024-.309-.165-.6h0c-.14-.293-.33-.7-.421-.9a6.149,6.149,0,0,0-2.566-1.948,4.952,4.952,0,0,1-.8-.406,11.378,11.378,0,0,0-1.807-.739,9.716,9.716,0,0,1-1.607-.642,29.4,29.4,0,0,0-3.372-1.577,7.806,7.806,0,0,1-.823-.339,1.6,1.6,0,0,0-.612-.162.566.566,0,0,1-.615-.515,1.43,1.43,0,0,0-.251-.568,1.416,1.416,0,0,1-.251-.941c0-.5-.035-.6-.259-.776a1.848,1.848,0,0,0-.452-.265c-.179-.057-.192-.172-.192-1.661a6.646,6.646,0,0,1,.093-1.6,3.931,3.931,0,0,0,.8-1.255,8.6,8.6,0,0,0,.411-1.439,3.171,3.171,0,0,1,.552-1.477,2.375,2.375,0,0,0,.392-.72,14.968,14.968,0,0,0,.242-3.7.623.623,0,0,0-.333-.072h-.262l.067-3.025c.063-2.844.055-3.062-.132-3.649a3.706,3.706,0,0,0-.822-1.535,11.8,11.8,0,0,1-1.231-1.084c-1.09-1.035-1.651-1.427-2.043-1.427a2.231,2.231,0,0,1-.637-.226c-.427-.21-.584-.225-2.266-.216a7.494,7.494,0,0,0-2.56.238,6.971,6.971,0,0,0-4.242,3.568c-.282.55-.416,2.1-.41,4.744l.006,2.535H686.2c-.433,0-.486.206-.415,1.606a5.136,5.136,0,0,0,.637,2.879,3.444,3.444,0,0,1,.5,1.534,3.321,3.321,0,0,0,.936,2.208l.533.641-.024,1.164c-.034,1.662-.085,1.855-.512,1.917-.488.071-.73.489-.989,1.707a9.075,9.075,0,0,1-.308,1.188,2.719,2.719,0,0,1-.928.454c-.46.158-1.254.463-1.765.678a6.855,6.855,0,0,1-1.086.391c-.142,0-2.805,1.26-4.613,2.183a17.287,17.287,0,0,0-3.033,1.876A4.451,4.451,0,0,0,674,334.007C674,334.121,674.687,334.14,678.039,334.12Z" transform="translate(-673.998 -300.715)" fill="#fff"/>
        <rect id="Rectangle_27" data-name="Rectangle 27" width="38" height="12" transform="translate(0.507 32.929)" fill="#fff"/>
      </g>
    </g>
  </g>
</svg>
