<svg xmlns="http://www.w3.org/2000/svg" width="28.848" height="31.229" viewBox="0 0 28.848 31.229">
  <g id="icon-phone" transform="translate(-119.54 -28.272)">
    <path id="Path_142" data-name="Path 142" d="M147.756,52.6l-.174-.347c-.486-1.146-6.459-2.882-6.945-2.917l-.382.035c-.729.139-1.528.8-3.091,2.153a.943.943,0,0,1-1.111.139,27.276,27.276,0,0,1-5.8-4.827A21.808,21.808,0,0,1,126.5,40.9a1.04,1.04,0,0,1,.278-1.076c1.771-1.6,2.535-2.361,2.6-3.195.035-.486-1.007-6.633-2.084-7.223l-.312-.208a3.935,3.935,0,0,0-2.882-.868,3.189,3.189,0,0,0-.8.312,10.439,10.439,0,0,0-3.542,3.508C119.246,33.221,119,42.98,126.3,51.21c7.223,8.161,16.148,8.508,17.468,8.23h.035l.1-.035a10.274,10.274,0,0,0,3.924-3.091c1.076-1.285.347-2.848-.07-3.716Z" transform="translate(0 0)"/>
  </g>
</svg>
