<svg xmlns="http://www.w3.org/2000/svg" width="46.554" height="41.118" viewBox="0 0 46.554 41.118">
  <g id="sun-cloud" transform="translate(1 0.5)">
    <g id="Group_199" data-name="Group 199" transform="translate(15.883)">
      <path id="Path_120" data-name="Path 120" d="M320.4,847.71a8.642,8.642,0,0,0-8.642,8.642c0,.211.01.42.025.628a9.472,9.472,0,0,1,3.479,6.321,8.68,8.68,0,0,0,.908.587,8.375,8.375,0,0,1,5.818.958A8.642,8.642,0,0,0,320.4,847.71Z" transform="translate(-306.842 -840.85)" fill="#fd0" stroke="#fd0" stroke-width="2"/>
      <path id="Path_121" data-name="Path 121" d="M352.24,817.665c.448,0,.812-1.054.812-2.354s-.364-2.355-.812-2.355-.812,1.054-.812,2.355S351.792,817.665,352.24,817.665Z" transform="translate(-338.68 -812.956)" fill="#fd0" stroke="#fd0" stroke-width="1"/>
      <path id="Path_122" data-name="Path 122" d="M317.563,827.465c.389-.224.177-1.319-.474-2.445s-1.492-1.857-1.881-1.633-.176,1.319.474,2.445S317.174,827.69,317.563,827.465Z" transform="translate(-309.454 -821.296)" fill="#fd0" stroke="#fd0" stroke-width="1"/>
      <path id="Path_123" data-name="Path 123" d="M382.368,939.712c-.389.224-.177,1.319.474,2.445s1.492,1.857,1.881,1.633.177-1.319-.474-2.445S382.756,939.487,382.368,939.712Z" transform="translate(-363.357 -914.66)" fill="#fd0" stroke="#fd0" stroke-width="1"/>
      <path id="Path_124" data-name="Path 124" d="M288.518,853.591c1.126.65,2.221.862,2.445.474s-.507-1.23-1.633-1.881-2.221-.862-2.445-.474S287.392,852.94,288.518,853.591Z" transform="translate(-286.844 -843.904)" fill="#fd0" stroke="#fd0" stroke-width="1"/>
      <path id="Path_125" data-name="Path 125" d="M405.655,919.344c-1.126-.65-2.221-.862-2.445-.474s.507,1.23,1.633,1.881,2.221.862,2.445.474S406.781,919.994,405.655,919.344Z" transform="translate(-380.209 -897.808)" fill="#fd0" stroke="#fd0" stroke-width="1"/>
      <path id="Path_126" data-name="Path 126" d="M413.127,887.93c-1.3,0-2.355.364-2.355.812s1.054.812,2.355.812,2.354-.364,2.354-.812S414.427,887.93,413.127,887.93Z" transform="translate(-386.311 -873.131)" fill="#fd0" stroke="#fd0" stroke-width="1"/>
      <path id="Path_127" data-name="Path 127" d="M405.655,853.59c1.126-.65,1.857-1.492,1.633-1.881s-1.319-.176-2.445.474-1.857,1.492-1.633,1.881S404.528,854.24,405.655,853.59Z" transform="translate(-380.208 -843.904)" fill="#fd0" stroke="#fd0" stroke-width="1"/>
      <path id="Path_128" data-name="Path 128" d="M382.367,827.465c.388.224,1.23-.507,1.881-1.633s.862-2.221.473-2.445-1.23.507-1.88,1.633S381.979,827.241,382.367,827.465Z" transform="translate(-363.357 -821.295)" fill="#fd0" stroke="#fd0" stroke-width="1"/>
    </g>
    <g id="Group_198" data-name="Group 198" transform="translate(0 14.039)">
      <path id="Path_117" data-name="Path 117" d="M233.227,892.919a8.368,8.368,0,0,0-2.487.376,9.48,9.48,0,0,0-18.957.166,8.371,8.371,0,0,0,2.963,16.2h18.481a8.371,8.371,0,1,0,0-16.742Z" transform="translate(-206.375 -884.082)" fill="none" stroke="#348ccb" stroke-linecap="round" stroke-linejoin="round" stroke-width="2"/>
      <path id="Path_118" data-name="Path 118" d="M233.761,893.565a9.483,9.483,0,1,1,18.768,1.938" transform="translate(-228.355 -884.082)" fill="none" stroke="#348ccb" stroke-linecap="round" stroke-linejoin="round" stroke-width="2"/>
      <path id="Path_119" data-name="Path 119" d="M232.277,929.512a8.381,8.381,0,0,1,9.177,1.794" transform="translate(-227.164 -920.017)" fill="none" stroke="#348ccb" stroke-linecap="round" stroke-linejoin="round" stroke-width="2"/>
    </g>
  </g>
</svg>
