<svg id="sun" xmlns="http://www.w3.org/2000/svg" width="68.7" height="68.7" viewBox="0 0 68.7 68.7">
  <path id="Path_129" data-name="Path 129" d="M178.561,615.774a19.016,19.016,0,1,1-19.016-19.015A19.017,19.017,0,0,1,178.561,615.774Z" transform="translate(-125.195 -581.664)" fill="#fd0"/>
  <g id="Group_207" data-name="Group 207">
    <g id="Group_201" data-name="Group 201" transform="translate(32.565)">
      <path id="Path_130" data-name="Path 130" d="M160.782,587.328c0,2.862-.8,5.182-1.788,5.182s-1.786-2.32-1.786-5.182.8-5.181,1.786-5.181S160.782,584.466,160.782,587.328Z" transform="translate(-157.208 -582.147)" fill="#fd0"/>
      <path id="Path_131" data-name="Path 131" d="M160.782,643.8c0,2.862-.8,5.181-1.788,5.181s-1.786-2.319-1.786-5.181.8-5.182,1.786-5.182S160.782,640.939,160.782,643.8Z" transform="translate(-157.208 -580.281)" fill="#fd0"/>
    </g>
    <g id="Group_202" data-name="Group 202" transform="translate(16.748 4.513)">
      <path id="Path_132" data-name="Path 132" d="M146.463,590.2c1.431,2.476,1.9,4.885,1.043,5.38s-2.708-1.117-4.139-3.594-1.9-4.887-1.042-5.38S145.033,587.721,146.463,590.2Z" transform="translate(-141.897 -586.516)" fill="#fd0"/>
      <path id="Path_133" data-name="Path 133" d="M174.7,639.1c1.431,2.478,1.9,4.887,1.042,5.38s-2.708-1.115-4.137-3.593-1.9-4.886-1.043-5.38S173.269,636.625,174.7,639.1Z" transform="translate(-140.964 -584.899)" fill="#fd0"/>
    </g>
    <g id="Group_203" data-name="Group 203" transform="translate(4.514 16.747)">
      <path id="Path_134" data-name="Path 134" d="M135.524,599.829c2.477,1.431,4.087,3.284,3.593,4.137s-2.9.387-5.38-1.042-4.087-3.282-3.593-4.138S133.047,598.4,135.524,599.829Z" transform="translate(-130.055 -598.358)" fill="#fd0"/>
      <path id="Path_135" data-name="Path 135" d="M184.431,628.066c2.477,1.43,4.087,3.282,3.593,4.136s-2.9.39-5.38-1.041-4.087-3.284-3.593-4.138S181.952,626.634,184.431,628.066Z" transform="translate(-128.439 -597.425)" fill="#fd0"/>
    </g>
    <g id="Group_204" data-name="Group 204" transform="translate(0 32.563)">
      <path id="Path_136" data-name="Path 136" d="M130.868,613.668c2.86,0,5.18.8,5.18,1.787s-2.319,1.788-5.18,1.788-5.183-.8-5.183-1.788S128.006,613.668,130.868,613.668Z" transform="translate(-125.685 -613.668)" fill="#fd0"/>
      <path id="Path_137" data-name="Path 137" d="M187.34,613.668c2.86,0,5.18.8,5.18,1.786s-2.319,1.789-5.18,1.789-5.181-.8-5.182-1.788S184.477,613.668,187.34,613.668Z" transform="translate(-123.819 -613.668)" fill="#fd0"/>
    </g>
    <g id="Group_205" data-name="Group 205" transform="translate(4.514 16.747)">
      <path id="Path_138" data-name="Path 138" d="M133.737,628.066c2.478-1.431,4.887-1.9,5.38-1.043s-1.116,2.708-3.593,4.138-4.886,1.9-5.38,1.041S131.26,629.5,133.737,628.066Z" transform="translate(-130.055 -597.425)" fill="#fd0"/>
      <path id="Path_139" data-name="Path 139" d="M182.644,599.829c2.478-1.431,4.887-1.9,5.38-1.043s-1.116,2.709-3.593,4.138-4.887,1.9-5.38,1.042S180.165,601.26,182.644,599.829Z" transform="translate(-128.439 -598.358)" fill="#fd0"/>
    </g>
    <g id="Group_206" data-name="Group 206" transform="translate(16.747 4.513)">
      <path id="Path_140" data-name="Path 140" d="M143.367,639.1c1.432-2.478,3.285-4.086,4.139-3.593s.387,2.9-1.043,5.38-3.283,4.088-4.138,3.594S141.936,641.582,143.367,639.1Z" transform="translate(-141.897 -584.899)" fill="#fd0"/>
      <path id="Path_141" data-name="Path 141" d="M171.605,590.2c1.429-2.478,3.283-4.089,4.137-3.594s.388,2.9-1.042,5.38-3.284,4.086-4.138,3.594S170.173,592.676,171.605,590.2Z" transform="translate(-140.964 -586.516)" fill="#fd0"/>
    </g>
  </g>
</svg>
